<svg xmlns="http://www.w3.org/2000/svg" width="16" height="16" viewBox="0 0 16 16">
    <path fill="#FFF" fill-rule="nonzero" d="M9 11.5a.48.48 0 0 1 .352.148A.48.48 0 0 1 9.5 12a.48.48 0 0 1-.148.352A.48.48 0 0 1 9 12.5H7a.48.48 0 0 1-.352-.148A.48.48 0 0 1 6.5 12a.48.48 0 0 1 .148-.352A.48.48 0 0 1 7 11.5h.5v-4H7a.48.48 0 0 1-.352-.148A.48.48 0 0 1 6.5 7a.48.48 0 0 1 .148-.352A.48.48 0 0 1 7 6.5h1a.48.48 0 0 1 .352.148A.48.48 0 0 1 8.5 7v4.5H9zm-1-6a.966.966 0 0 1-.71-.29A.966.966 0 0 1 7 4.5c0-.281.096-.518.29-.71A.966.966 0 0 1 8 3.5c.281 0 .518.096.71.29.194.192.29.429.29.71a.966.966 0 0 1-.29.71.966.966 0 0 1-.71.29zM8 0c1.104 0 2.143.208 3.117.625a8.028 8.028 0 0 1 2.547 1.71 8.028 8.028 0 0 1 1.711 2.548C15.792 5.857 16 6.896 16 8a7.841 7.841 0 0 1-.625 3.117 8.028 8.028 0 0 1-1.71 2.547 8.028 8.028 0 0 1-2.548 1.711A7.841 7.841 0 0 1 8 16a7.841 7.841 0 0 1-3.117-.625 8.028 8.028 0 0 1-2.547-1.71 8.028 8.028 0 0 1-1.711-2.548A7.841 7.841 0 0 1 0 8c0-1.104.208-2.143.625-3.117a8.028 8.028 0 0 1 1.71-2.547A8.028 8.028 0 0 1 4.884.625 7.841 7.841 0 0 1 8 0zm0 15.016c.969 0 1.878-.185 2.727-.555a7.064 7.064 0 0 0 2.218-1.508 7.228 7.228 0 0 0 1.5-2.226C14.815 9.877 15 8.969 15 8c0-.969-.185-1.878-.555-2.727a7.131 7.131 0 0 0-1.5-2.218 7.131 7.131 0 0 0-2.218-1.5A6.753 6.753 0 0 0 8 1c-.969 0-1.878.185-2.727.555-.849.37-1.588.87-2.218 1.5-.63.63-1.13 1.37-1.5 2.218A6.753 6.753 0 0 0 1 8c0 .969.185 1.878.555 2.727.37.849.87 1.59 1.5 2.226a7.064 7.064 0 0 0 2.218 1.508c.85.37 1.758.555 2.727.555z"/>
</svg>
